<svg xmlns="http://www.w3.org/2000/svg" viewBox="0 0 1718.02 1127.77"><path fill="#FFFFFF" d="M1718.02,38.59v513.21c0,21.31-17.28,38.59-38.59,38.59h-423.04c-71.04,0-128.62,57.59-128.62,128.62v370.18c0,21.31-17.28,38.59-38.59,38.59h-482.95c-10.23,0-20.05-4.07-27.29-11.3L11.3,548.82c-7.24-7.24-11.3-17.05-11.3-27.29V38.59C0,17.28,17.28,0,38.59,0h482.95c10.23,0,20.05,4.07,27.29,11.3l556.99,556.99c8.1,8.1,21.96,2.36,21.96-9.1V38.59c0-21.31,17.28-38.59,38.59-38.59h513.08c21.31,0,38.59,17.28,38.59,38.59Z"></path></svg>