<svg xmlns="http://www.w3.org/2000/svg" viewBox="0 0 1549.02 338.13"><path fill="#FFFFFF" d="M515.1,11.57v153.87c0,6.39-5.18,11.57-11.57,11.57h-126.84c-21.3,0-38.56,17.27-38.56,38.56v110.99c0,6.39-5.18,11.57-11.57,11.57h-144.8c-3.07,0-6.01-1.22-8.18-3.39L3.39,164.55c-2.17-2.17-3.39-5.11-3.39-8.18V11.57C0,5.18,5.18,0,11.57,0h144.8c3.07,0,6.01,1.22,8.18,3.39l167,167c2.43,2.43,6.58.71,6.58-2.73V11.57c0-6.39,5.18-11.57,11.57-11.57h153.83c6.39,0,11.57,5.18,11.57,11.57Z"></path><path fill="#FFFFFF" d="M628.44,3.26h74.68l78.91,243.31L862.83,3.26h72.81l-111.32,328.79h-84.08L628.44,3.26Z"></path><path fill="#FFFFFF" d="M1165.77,276.16v55.9h-33.82c-34.29,0-45.09-16.44-44.62-39.46-16.91,26.77-41.34,42.27-78.91,42.27-52.14,0-89.71-24.9-89.71-70.93,0-51.2,38.52-80.32,110.85-80.32h47.91v-11.74c0-21.6-15.5-35.7-43.21-35.7-25.83,0-43.21,11.74-46.03,29.59h-63.88c4.7-46.97,47.91-77.97,111.79-77.97,67.64,0,106.62,30.06,106.62,87.84v85.49c0,12.68,5.17,15.03,15.5,15.03h7.52ZM1077.46,227.78h-48.38c-27.71,0-43.68,11.27-43.68,31.47,0,16.91,13.62,27.71,35.7,27.71,34.76,0,55.9-21.61,56.36-54.49v-4.7Z"></path><path fill="#FFFFFF" d="M1191.58,3.26h66.23v328.79h-66.23V3.26Z"></path><path fill="#FFFFFF" d="M1294.43,211.34c0-74.21,50.26-123.53,127.29-123.53s127.29,49.32,127.29,123.53-50.26,123.53-127.29,123.53-127.29-49.32-127.29-123.53ZM1481.85,211.34c0-40.87-23.01-69.52-60.12-69.52s-59.65,28.65-59.65,69.52,22.55,69.52,59.65,69.52,60.12-28.65,60.12-69.52Z"></path></svg>